<svg id="Layer_1" data-name="Layer 1" xmlns="http://www.w3.org/2000/svg" xmlns:xlink="http://www.w3.org/1999/xlink" viewBox="0 0 415 500"><defs><style>.cls-1{fill:url(#linear-gradient);}.cls-2{fill:url(#linear-gradient-2);}.cls-3,.cls-6,.cls-7{fill:#fff;}.cls-4{fill:url(#linear-gradient-3);}.cls-5,.cls-6,.cls-7{isolation:isolate;}.cls-6,.cls-7{font-size:50.59px;font-family:Roboto-Bold, Roboto;font-weight:700;}.cls-7{letter-spacing:-0.01em;}</style><linearGradient id="linear-gradient" x1="460.98" y1="534.32" x2="-122.79" y2="131.43" gradientTransform="matrix(1, 0, 0, -1, 0, 502)" gradientUnits="userSpaceOnUse"><stop offset="0.41" stop-color="#0cf"/><stop offset="1" stop-color="#ba03f1"/></linearGradient><linearGradient id="linear-gradient-2" x1="499.75" y1="354.51" x2="-102.28" y2="-54" gradientTransform="matrix(1, 0, 0, -1, 0, 502)" gradientUnits="userSpaceOnUse"><stop offset="0" stop-color="#0cf"/><stop offset="1" stop-color="#09f"/></linearGradient><linearGradient id="linear-gradient-3" x1="318.56" y1="373.67" x2="70.46" y2="98.56" gradientTransform="matrix(1, 0, 0, -1, 0, 502)" gradientUnits="userSpaceOnUse"><stop offset="0" stop-color="#fd3434"/><stop offset="1" stop-color="#fd3434"/></linearGradient></defs><title>logo</title><g id="OBJECTS"><path class="cls-1" d="M262.37,303.24H5.3V105.35A102.92,102.92,0,0,1,108.22,2.44H262.37A150.38,150.38,0,0,1,412.75,152.82h0A150.38,150.38,0,0,1,262.41,303.24Z"/><path class="cls-2" d="M27.63,196.78h237A148.13,148.13,0,0,1,412.75,344.9V465a32.64,32.64,0,0,1-32.64,32.64H5.29V219.15a22.35,22.35,0,0,1,22.32-22.37Z"/><circle class="cls-3" cx="209.02" cy="249.75" r="133.49"/><path class="cls-4" d="M256.42,294.58a65.3,65.3,0,1,1-3.84-93.4,20.77,20.77,0,0,0,13.79,5.52h1.29c19.48,0,28.71-23.94,14.29-37a108,108,0,0,0-80.94-28c-53.5,3.83-96.78,47.52-100.15,101.06A108.34,108.34,0,0,0,288.25,323.6c12.6-13.52,2.6-35.63-15.82-35.63h-1.36A20.25,20.25,0,0,0,256.42,294.58Z"/><g class="cls-5"><text class="cls-6" transform="translate(20.4 476.67)">C</text><text class="cls-7" transform="translate(53.61 476.67)">r</text><text class="cls-6" transform="translate(72.31 476.67)">eate of B</text><text class="cls-7" transform="translate(276.22 476.67)">r</text><text class="cls-6" transform="translate(294.65 476.67)">and</text></g></g></svg>